<svg xmlns:xlink="http://www.w3.org/1999/xlink" xmlns="http://www.w3.org/2000/svg" viewBox="0 0 64 64" id="Credit-Card" width="64"  height="64" ><path fill="#595bd4" d="M59 11H5c-1.654 0-3 1.346-3 3v36c0 1.654 1.346 3 3 3h54c1.654 0 3-1.346 3-3V14c0-1.654-1.346-3-3-3z" class="color4d4d4d svgShape"/><path fill="#fe9526" d="M17 51c-5.24 0-10.279-.683-15-1.928V50c0 1.654 1.346 3 3 3h54c1.654 0 3-1.346 3-3V25.915C55.209 40.563 37.626 51 17 51z" class="color3e3e3e svgShape"/><path fill="#167ffc" d="M2 21h60v10H2z" class="color3ebbdd svgShape"/><path fill="#53d86a" d="M6 15h2v2H6zM10 15h2v2h-2zM14 15h2v2h-2zM18 15h2v2h-2zM57 43h-8a1 1 0 0 0-1 1v4a1 1 0 0 0 1 1h8a1 1 0 0 0 1-1v-4a1 1 0 0 0-1-1zM45 43h-8a1 1 0 0 0-1 1v4a1 1 0 0 0 1 1h8a1 1 0 0 0 1-1v-4a1 1 0 0 0-1-1zM7 45h15v2H7z" class="colorffffff svgShape"/></svg>